<?xml version="1.0" encoding="utf-8"?>
<!-- Generator: Adobe Illustrator 27.7.0, SVG Export Plug-In . SVG Version: 6.00 Build 0)  -->
<svg version="1.1" id="Layer_1" xmlns="http://www.w3.org/2000/svg" xmlns:xlink="http://www.w3.org/1999/xlink" x="0px" y="0px"
	 viewBox="0 0 1288.3 1288.3" style="enable-background:new 0 0 1288.3 1288.3;" xml:space="preserve">
<g>
	<path d="M644.2,0C822,0,983.1,72.1,1099.7,188.7c116.6,116.6,188.7,277.6,188.7,455.5s-72.1,338.9-188.7,455.5
		c-116.6,116.6-277.6,188.7-455.5,188.7s-338.9-72.1-455.5-188.7C72.1,983.1,0,822,0,644.2s72.1-338.9,188.7-455.5
		C305.2,72.1,466.3,0,644.2,0L644.2,0z M1093.4,195C978.4,80,819.6,8.9,644.2,8.9S309.9,80,195,195S8.9,468.7,8.9,644.2
		S80,978.4,195,1093.4s273.8,186.1,449.2,186.1s334.2-71.1,449.2-186.1s186.1-273.8,186.1-449.2S1208.3,309.9,1093.4,195L1093.4,195
		z"/>
	<path d="M630.3,10.5c172.8,0,329.3,70.1,442.5,183.3c113.2,113.2,183.3,269.7,183.3,442.5s-70.1,329.3-183.3,442.5
		c-113.2,113.2-269.7,183.3-442.5,183.3c-172.8,0-329.3-70.1-442.5-183.3C74.6,965.6,4.5,809.1,4.5,636.3
		c0-172.8,70.1-329.3,183.3-442.5C301.1,80.5,457.5,10.5,630.3,10.5L630.3,10.5z M1066.6,200.1C954.9,88.5,800.7,19.4,630.3,19.4
		c-170.4,0-324.6,69.1-436.2,180.7C82.5,311.7,13.4,466,13.4,636.3c0,170.4,69.1,324.6,180.7,436.2
		c111.6,111.6,265.9,180.7,436.2,180.7c170.4,0,324.6-69.1,436.2-180.7c111.6-111.7,180.7-265.9,180.7-436.2
		C1247.3,466,1178.2,311.7,1066.6,200.1L1066.6,200.1z"/>
	<path d="M616.5,21c167.7,0,319.6,68,429.6,177.9S1224,460.7,1224,628.4s-68,319.6-177.9,429.6
		c-109.9,109.9-261.8,177.9-429.6,177.9c-167.7,0-319.6-68-429.6-177.9C77,948.1,9,796.2,9,628.4s68-319.6,177.9-429.5
		S448.7,21,616.5,21L616.5,21z M1039.8,205.2C931.5,96.9,781.8,29.9,616.5,29.9s-314.9,67-423.3,175.3
		C84.9,313.5,17.9,463.2,17.9,628.4s67,314.9,175.3,423.3C301.6,1160,451.2,1227,616.5,1227s314.9-67,423.3-175.3
		c108.3-108.3,175.3-258,175.3-423.3S1148.1,313.5,1039.8,205.2L1039.8,205.2z"/>
	<path d="M602.7,31.5c162.7,0,310,65.9,416.6,172.6c106.6,106.6,172.6,253.9,172.6,416.6s-65.9,310-172.6,416.6
		c-106.6,106.6-253.9,172.6-416.6,172.6c-162.7,0-310-65.9-416.6-172.6C79.5,930.6,13.5,783.3,13.5,620.6
		c0-162.7,65.9-310,172.6-416.6C292.7,97.4,440,31.5,602.7,31.5L602.7,31.5z M1013,210.3C908,105.3,762.9,40.3,602.7,40.3
		s-305.3,65-410.3,169.9c-105,105-170,250.1-170,410.3c0,160.2,65,305.3,170,410.3c105,105,250.1,169.9,410.3,169.9
		c160.2,0,305.3-65,410.3-169.9c105-105,169.9-250.1,169.9-410.3S1118,315.3,1013,210.3L1013,210.3z"/>
	<path d="M588.8,41.9c157.6,0,300.3,63.9,403.6,167.2c103.3,103.3,167.2,246,167.2,403.6c0,157.6-63.9,300.3-167.2,403.6
		c-103.3,103.3-246,167.2-403.6,167.2c-157.6,0-300.3-63.9-403.6-167.2C81.9,913.1,18,770.4,18,612.7
		c0-157.6,63.9-300.3,167.2-403.6C288.5,105.8,431.2,41.9,588.8,41.9L588.8,41.9z M986.2,215.4C884.5,113.7,744,50.8,588.8,50.8
		c-155.1,0-295.7,62.9-397.3,164.6C89.8,317.1,26.9,457.6,26.9,612.7s62.9,295.7,164.6,397.3c101.7,101.7,242.2,164.6,397.3,164.6
		s295.7-62.9,397.3-164.6c101.7-101.7,164.6-242.2,164.6-397.3S1087.9,317.1,986.2,215.4L986.2,215.4z"/>
	<path d="M575,52.4c152.6,0,290.7,61.8,390.7,161.8c100,100,161.8,238.1,161.8,390.7c0,152.5-61.8,290.7-161.8,390.7
		c-100,100-238.1,161.8-390.7,161.8s-290.7-61.8-390.6-161.8c-100-100-161.8-238.1-161.8-390.6c0-152.6,61.8-290.7,161.8-390.7
		C284.3,114.2,422.4,52.4,575,52.4L575,52.4z M959.4,220.5C861,122.1,725.1,61.3,575,61.3c-150.1,0-286,60.8-384.4,159.2
		C92.3,318.9,31.4,454.8,31.4,604.9c0,150.1,60.8,286,159.2,384.4c98.4,98.4,234.3,159.2,384.4,159.2c150.1,0,286-60.8,384.4-159.2
		c98.4-98.4,159.2-234.3,159.2-384.4C1118.6,454.8,1057.7,318.9,959.4,220.5L959.4,220.5z"/>
	<path d="M561.2,62.9c147.5,0,281,59.8,377.7,156.4c96.6,96.6,156.4,230.2,156.4,377.7c0,147.5-59.8,281-156.4,377.7
		c-96.7,96.7-230.2,156.4-377.7,156.4c-147.5,0-281-59.8-377.7-156.4C86.8,878,27,744.5,27,597c0-147.5,59.8-281,156.4-377.7
		C280.1,122.7,413.7,62.9,561.2,62.9L561.2,62.9z M932.6,225.6c-95-95.1-226.3-153.8-371.4-153.8c-145,0-276.4,58.8-371.4,153.8
		C94.7,320.7,35.9,452,35.9,597c0,145,58.8,276.3,153.9,371.4c95.1,95.1,226.4,153.8,371.4,153.8c145,0,276.3-58.8,371.4-153.8
		s153.8-226.4,153.8-371.4C1086.4,452,1027.6,320.6,932.6,225.6z"/>
	<path d="M547.4,73.4c142.4,0,271.4,57.7,364.7,151.1c93.3,93.3,151.1,222.3,151.1,364.7c0,142.4-57.7,271.4-151.1,364.7
		s-222.3,151.1-364.7,151.1S276,1047.2,182.7,953.9C89.3,860.5,31.6,731.6,31.6,589.2c0-142.4,57.7-271.4,151.1-364.7
		S404.9,73.4,547.4,73.4L547.4,73.4z M905.8,230.7C814.1,139,687.3,82.2,547.4,82.2S280.7,139,188.9,230.7
		C97.2,322.5,40.5,449.2,40.5,589.2c0,140,56.7,266.7,148.5,358.4c91.7,91.7,218.4,148.5,358.4,148.5s266.7-56.7,358.4-148.5
		c91.7-91.7,148.5-218.5,148.5-358.4C1054.3,449.2,997.5,322.4,905.8,230.7L905.8,230.7z"/>
	<path d="M533.5,83.8c137.4,0,261.7,55.7,351.8,145.7c90,90,145.7,214.4,145.7,351.8S975.3,843,885.3,933
		c-90,90-214.4,145.7-351.8,145.7S271.8,1023,181.8,933c-90-90-145.7-214.4-145.7-351.8s55.7-261.7,145.7-351.8
		C271.8,139.5,396.2,83.8,533.5,83.8L533.5,83.8z M879,235.8C790.6,147.4,668.4,92.7,533.5,92.7s-257.1,54.7-345.5,143.1
		C99.7,324.2,45,446.4,45,581.3s54.7,257,143.1,345.5c88.4,88.4,210.6,143.1,345.5,143.1c134.9,0,257-54.7,345.5-143.1
		s143.1-210.5,143.1-345.5C1022.1,446.4,967.4,324.2,879,235.8L879,235.8z"/>
	<path d="M519.7,94.3c132.3,0,252.1,53.6,338.8,140.3s140.3,206.5,140.3,338.8c0,132.3-53.6,252.1-140.3,338.8
		S652,1052.5,519.7,1052.5c-132.3,0-252.1-53.6-338.8-140.3S40.6,705.7,40.6,573.4c0-132.3,53.6-252.1,140.3-338.8
		C267.6,147.9,387.4,94.3,519.7,94.3L519.7,94.3z M852.2,240.9c-85.1-85.1-202.6-137.7-332.5-137.7s-247.4,52.6-332.5,137.7
		C102.1,326,49.5,443.6,49.5,573.4c0,129.8,52.6,247.4,137.7,332.5c85.1,85.1,202.6,137.7,332.5,137.7S767.1,991,852.2,905.9
		c85.1-85.1,137.7-202.7,137.7-332.5C989.9,443.6,937.3,326,852.2,240.9L852.2,240.9z"/>
	<path d="M505.9,104.8c127.2,0,242.4,51.6,325.8,134.9c83.4,83.4,135,198.6,135,325.8c0,127.2-51.6,242.4-135,325.8
		c-83.4,83.4-198.6,134.9-325.8,134.9c-127.2,0-242.4-51.6-325.8-135C96.7,808,45.1,692.8,45.1,565.5
		c0-127.2,51.6-242.4,134.9-325.8C263.4,156.4,378.6,104.8,505.9,104.8L505.9,104.8z M825.4,246c-81.8-81.8-194.8-132.4-319.5-132.4
		c-124.8,0-237.8,50.6-319.5,132.4C104.5,327.8,54,440.8,54,565.6c0,124.8,50.6,237.8,132.4,319.5
		c81.8,81.8,194.8,132.3,319.5,132.3s237.8-50.6,319.5-132.4c81.8-81.8,132.3-194.7,132.3-319.5C957.7,440.8,907.1,327.8,825.4,246
		L825.4,246z"/>
	<path d="M492,115.3c122.2,0,232.8,49.5,312.9,129.6c80.1,80.1,129.6,190.7,129.6,312.9c0,122.2-49.5,232.8-129.6,312.8
		S614.2,1000.1,492,1000.1c-122.1,0-232.8-49.5-312.8-129.6C99.1,790.5,49.6,679.9,49.6,557.7c0-122.2,49.5-232.8,129.6-312.9
		C259.3,164.8,369.9,115.3,492,115.3L492,115.3z M798.6,251.1c-78.4-78.5-186.8-127-306.6-127c-119.7,0-228.1,48.5-306.6,127
		S58.5,438,58.5,557.7c0,119.7,48.5,228.1,127,306.6c78.5,78.4,186.8,127,306.6,127s228.1-48.5,306.6-127
		c78.5-78.5,127-186.9,127-306.6C925.6,438,877,329.6,798.6,251.1L798.6,251.1z"/>
	<path d="M478.2,125.8c117.1,0,223.1,47.5,299.9,124.2c76.8,76.7,124.2,182.8,124.2,299.9S854.8,773,778.1,849.7
		c-76.8,76.8-182.8,124.2-299.9,124.2c-117.1,0-223.1-47.5-299.9-124.2C101.6,773,54.1,667,54.1,549.8S101.6,326.7,178.3,250
		C255.1,173.2,361.1,125.7,478.2,125.8L478.2,125.8z M771.8,256.2c-75.1-75.1-179-121.6-293.6-121.6
		c-114.7,0-218.4,46.5-293.6,121.6C109.5,331.4,63,435.2,63,549.8c0,114.7,46.5,218.5,121.6,293.6C259.7,918.6,363.5,965,478.2,965
		c114.7,0,218.4-46.5,293.6-121.6c75.1-75.1,121.6-178.9,121.6-293.6C893.4,435.2,846.9,331.4,771.8,256.2L771.8,256.2z"/>
	<path d="M464.4,136.2c112.1,0,213.5,45.4,286.9,118.8S870.1,430,870.1,542c0,112-45.4,213.5-118.8,286.9S576.4,947.8,464.4,947.8
		s-213.5-45.4-286.9-118.8C104,755.5,58.6,654,58.6,542c0-112,45.4-213.5,118.8-286.9S352.3,136.2,464.4,136.2L464.4,136.2z
		 M745,261.4c-71.8-71.8-171-116.2-280.6-116.2c-109.6,0-208.8,44.4-280.6,116.2C111.9,333.2,67.5,432.4,67.5,542
		c0,109.6,44.4,208.8,116.2,280.6c71.8,71.8,171,116.2,280.6,116.2c109.6,0,208.8-44.4,280.6-116.2c71.8-71.8,116.2-171,116.2-280.6
		C861.2,432.4,816.8,333.2,745,261.4z"/>
</g>
</svg>
