<?xml version="1.0" encoding="utf-8"?>
<!-- Generator: Adobe Illustrator 27.7.0, SVG Export Plug-In . SVG Version: 6.00 Build 0)  -->
<svg version="1.1" id="Layer_1" xmlns="http://www.w3.org/2000/svg" xmlns:xlink="http://www.w3.org/1999/xlink" x="0px" y="0px"
	 viewBox="0 0 100 94.4" style="enable-background:new 0 0 100 94.4;" xml:space="preserve">
<g>
	<path d="M80.9,94.4L50.1,78.3L19.3,94.4l5.9-34.2L0.2,36.1l34.5-5L50.1,0l15.4,31.1l34.5,5L75.1,60.2L80.9,94.4z M2.5,36.8
		l23.8,23.1l-5.6,32.6l29.4-15.4l29.4,15.4l-5.6-32.6l23.8-23.1L64.8,32L50.1,2.4L35.4,32L2.5,36.8z"/>
	<path d="M76.7,88.6L50.1,74.7L23.5,88.6l5.1-29.5L7.1,38.3L36.8,34L50.1,7.1L63.4,34l29.8,4.3L71.7,59.1L76.7,88.6z M9.3,39
		l20.4,19.8l-4.8,27.9l25.2-13.2l25.2,13.2l-4.8-27.9L90.9,39l-28.2-4.1L50.1,9.5L37.5,34.9L9.3,39z"/>
	<path d="M72.5,82.8L50.1,71.1L27.7,82.8L32,58L13.9,40.5l25.1-3.6l11.2-22.6l11.2,22.6l25,3.6L68.2,58L72.5,82.8z M16.2,41.2
		l17,16.4l-4,23.3l21-11l21,11l-4-23.3l17-16.4l-23.5-3.4L50.1,16.7L39.6,37.8L16.2,41.2z"/>
	<path d="M31.9,77.1l3.5-20.1L20.7,42.7L41,39.7l9.1-18.3l9.1,18.3l20.3,2.9L64.8,56.9l3.5,20.1l-18.2-9.5L31.9,77.1z M23,43.4
		l13.6,13.1l-3.2,18.6l16.8-8.8l16.8,8.8l-3.2-18.6l13.6-13.1l-18.8-2.7l-8.4-16.9l-8.4,16.9L23,43.4z"/>
	<path d="M36.1,71.3l2.7-15.5L27.5,44.9l15.6-2.3l7-14l7,14l15.6,2.3L61.4,55.8l2.7,15.5l-14-7.3L36.1,71.3z M29.8,45.6l10.1,9.8
		l-2.4,13.9l12.6-6.6l12.6,6.6l-2.4-13.9l10.1-9.8l-14-2L50.1,31l-6.3,12.6L29.8,45.6z"/>
	<path d="M40.4,65.5l1.9-10.8l-7.9-7.6l10.9-1.6l4.9-9.8l4.9,9.8l10.9,1.6L58,54.7l1.9,10.8l-9.7-5.1L40.4,65.5z M36.6,47.8l6.7,6.5
		l-1.6,9.3l8.3-4.4l8.3,4.4l-1.6-9.2l6.7-6.5l-9.3-1.4l-4.2-8.4L46,46.5L36.6,47.8z"/>
	<path d="M46.2,53.4l-3.9-3.8l5.4-0.8l2.4-4.8l2.4,4.8l5.4,0.8L54,53.4l0.9,5.4l-4.8-2.5l-4.8,2.5L46.2,53.4z"/>
</g>
</svg>
